<svg width="1796" height="5444" viewBox="0 0 1796 5444" fill="none" xmlns="http://www.w3.org/2000/svg">
<mask id="mask0" mask-type="alpha" maskUnits="userSpaceOnUse" x="0" y="0" width="1796" height="5444">
<rect width="1796" height="5444" fill="#C4C4C4"/>
</mask>
<g mask="url(#mask0)">
<path d="M1308.5 159.5C1349.3 62.3 1458.67 60.1666 1495.5 89C1518.67 100.667 1562.78 161.732 1568.5 203.5C1580 287.5 1522.5 322.5 1487 375.5C1451.5 428.5 1552.5 542 1539.5 592C1526.5 642 1392.5 628.5 1347.5 601.5C1302.5 574.5 1308.5 509.5 1327 451C1345.5 392.5 1320 364.5 1308.5 322.5C1296.67 279.296 1257.5 281 1308.5 159.5Z" fill="#6FCF97" fill-opacity="0.15"/>
<path d="M257.475 851.8C333.42 923.802 487.266 805.989 571.921 836.578C639.996 858.722 642.426 789.035 679.813 803.253C717.201 817.471 753.667 853.806 898.309 732.284C1042.95 610.762 936.102 368.457 779.81 427.776C623.518 487.095 507.815 286.358 404.998 285.237C302.182 284.117 251.174 418.246 263.653 490.928C278.423 576.951 489.637 673.157 385.865 713.934C282.094 754.71 207.542 804.459 257.475 851.8Z" fill="#BB6BD9" fill-opacity="0.25"/>
<path d="M1535.68 1690.17C1548.33 1586.29 1362.08 1532.8 1336.27 1446.57C1313.54 1378.69 1256.09 1418.22 1245.26 1379.71C1234.43 1341.21 1241.92 1290.28 1058.17 1246.39C874.426 1202.51 743.333 1432.6 884.034 1522.87C1024.73 1613.15 932.312 1825.61 992.616 1908.89C1052.92 1992.17 1191.06 1953.32 1242.03 1900.02C1302.36 1836.95 1253.94 1609.97 1348.47 1669.08C1443.01 1728.18 1527.36 1758.48 1535.68 1690.17Z" fill="#BB6BD9" fill-opacity="0.25"/>
<path d="M371.003 2388.93C270.593 2278.67 332.324 2147.73 390.954 2122.45C419.547 2102.43 523.74 2089.06 580.591 2108.88C694.926 2148.76 705.849 2239.19 752.788 2315.01C799.726 2390.83 1004.59 2343.45 1060.95 2390.7C1117.31 2437.95 1021.04 2588.13 959.941 2624.25C898.846 2660.37 819.154 2611.86 755.153 2552.68C691.152 2493.5 640.27 2505.88 579.713 2492.75C517.421 2479.25 496.515 2526.75 371.003 2388.93Z" fill="#6FCF97" fill-opacity="0.15"/>
<path d="M967.267 3717.08C1088.67 3721.72 1132.63 3501.11 1229.91 3462.95C1306.25 3430.12 1254.99 3367.47 1298.5 3351.24C1342 3335 1401.64 3338.77 1434.74 3121.97C1467.83 2905.18 1189.03 2775.65 1098.13 2947.11C1007.23 3118.57 752.54 3032.08 661.993 3109.86C571.446 3187.64 629.687 3343.71 696.245 3397.55C775.018 3461.28 1032.95 3383.42 973.665 3498.47C914.377 3613.53 887.448 3714.03 967.267 3717.08Z" fill="#BB6BD9" fill-opacity="0.25"/>
<path d="M762.794 4751.63C756.313 4893.97 988.899 4969.1 1027.96 5087.6C1061.66 5180.9 1128.54 5127.24 1145.14 5180.15C1161.73 5233.06 1156.97 5302.83 1385.67 5364.77C1614.37 5426.7 1754.88 5112.42 1574.86 4987.28C1394.83 4862.14 1489.54 4571.66 1408.52 4456.88C1327.5 4342.09 1161.79 4394.06 1104.02 4466.66C1035.64 4552.58 1114.58 4864.31 993.749 4782.35C872.921 4700.39 767.055 4658.04 762.794 4751.63Z" fill="#BB6BD9" fill-opacity="0.25"/>
<path d="M161.003 4093.03C60.5929 3982.78 122.324 3851.83 180.954 3826.56C209.547 3806.54 313.74 3793.16 370.591 3812.99C484.926 3852.87 495.849 3943.29 542.788 4019.12C589.726 4094.94 794.587 4047.56 850.946 4094.81C907.305 4142.06 811.037 4292.24 749.941 4328.36C688.846 4364.48 609.154 4315.97 545.153 4256.79C481.152 4197.6 430.27 4209.98 369.713 4196.86C307.421 4183.36 286.515 4230.85 161.003 4093.03Z" fill="#6FCF97" fill-opacity="0.15"/>
</g>
</svg>
